# xmcd
#
# Track frame offsets:
#	150
#	14132
#	26780
#	38944
#	51259
#	63298
#	74375
#	89230
#	103047
#	116023
#	128409
#	141301
#	154609
#	167960
#	179777
#	193126
#
# Disc length: 2766 seconds
# Revision: 0
# Processed by: cddbd v1.5.2PL0 Copyright (c) Steve Scherf et al.
# Submitted via: dBpowerAMP V12.0
#
DISCID=f60acc10
DTITLE=Mohd. Siddique and Ranjit Kaur - Siti Maar Main Chubara Tera Bhul Gai
DYEAR=1900
DGENRE=Punjabi Folk
TTITLE0=Telu Ram Di Hatti Da Zarda
TTITLE1=Warantan Nal Vi Ley Joonga
TTITLE2=Ah Le Pharh Chabi Ghar Di
TTITLE3=Darwat Ke Guzara
TTITLE4=Mere Nit Dey Sharabi Yara
TTITLE5=Khet Gai Sass Murhi Na
TTITLE6=Ik Teri Arh Bhan-ni
TTITLE7=Hasdi Ne Phul Mangeya
TTITLE8=Babe Di Phul Kirpa
TTITLE9=Van Ni Bhabiya Jeondi Reh
TTITLE10=Koi Hor Na Chobare Wich
TTITLE11=Siti Maar Main Tera Bhul
TTITLE12=Muk Gayi Afeem
TTITLE13=Tar Bina Tumba Vajda Na
TTITLE14=Billo Botlan Sharaab Diyan
TTITLE15=Gaddi Wichon Lat Lamke
EXTD=
EXTT0=
EXTT1=
EXTT2=
EXTT3=
EXTT4=
EXTT5=
EXTT6=
EXTT7=
EXTT8=
EXTT9=
EXTT10=
EXTT11=
EXTT12=
EXTT13=
EXTT14=
EXTT15=
PLAYORDER=
